<svg width="109" height="35" viewBox="0 0 109 35" fill="none" xmlns="http://www.w3.org/2000/svg">
<path id="path52 2" d="M87.4027 31.2736V13.8346H83.1639V31.2736H3.77765V3.72662H6.86131V0H0V35H87.4089V31.2736H87.4027Z" fill="#7445FC"/>
<path id="path46 2" d="M83.2534 9.22168H87.4919V12.773H83.2534V9.22168Z" fill="#7445FC"/>
<path id="path46 1" d="M25.1852 9.22168H29.4239V12.773H25.1852V9.22168Z" fill="#7445FC"/>
<path id="path52 1" d="M87.4027 31.2736V13.8346H83.1639V31.2736H3.77765V3.72662H6.86131V0H0V35H87.4089V31.2736H87.4027Z" fill="#7445FC"/>
<path id="Vector" d="M8.73981 0V0.00183178H8.70239V25.1861H10.621V25.1864H23.3836V20.7967H13.5173V3.72662H104.538V31.2736H89.2482V34.9992H108.316V0H8.73981Z" fill="#7445FC"/>
<path id="Vector_2" d="M29.313 13.835V25.3252H25.1282V13.835H29.313Z" fill="#7445FC"/>
<path id="Vector_3" d="M40.5204 16.3159H48.8254C48.8254 17.1695 48.7896 17.9457 48.7179 18.6431C48.6462 19.3405 48.5048 19.9884 48.291 20.5863C47.9925 21.4261 47.5866 22.1692 47.0742 22.8172C46.5619 23.4648 45.9608 24.0052 45.2705 24.4399C44.5799 24.8737 43.8218 25.205 42.997 25.4319C42.1711 25.6598 41.3026 25.7742 40.3922 25.7742C39.1395 25.7742 37.9973 25.5672 36.9654 25.1543C35.9336 24.7424 35.047 24.1622 34.3078 23.4151C33.5675 22.668 32.9915 21.7704 32.5786 20.7248C32.1657 19.6791 31.9597 18.523 31.9597 17.2554C31.9597 16.0038 32.1617 14.8534 32.5676 13.8077C32.9735 12.762 33.5497 11.8686 34.2968 11.1283C35.0439 10.3891 35.9444 9.81209 36.9971 9.39915C38.0509 8.98622 39.2248 8.78027 40.5204 8.78027C42.1988 8.78027 43.6724 9.14349 44.9392 9.86887C46.2057 10.5953 47.2098 11.7195 47.9498 13.2417L43.9788 14.8864C43.6088 14.0037 43.1281 13.3699 42.5372 12.986C41.9471 12.6019 41.2746 12.4101 40.5204 12.4101C39.8937 12.4101 39.3245 12.5276 38.8121 12.7623C38.2998 12.997 37.862 13.3315 37.4998 13.7653C37.1366 14.2002 36.8521 14.7226 36.6451 15.3344C36.4392 15.9462 36.3358 16.6297 36.3358 17.3841C36.3358 18.0676 36.4243 18.7004 36.6025 19.2845C36.7807 19.8675 37.0473 20.3731 37.4035 20.7999C37.7586 21.2267 38.2006 21.558 38.7268 21.7929C39.2531 22.0277 39.8662 22.1452 40.5636 22.1452C40.9755 22.1452 41.3745 22.0994 41.7584 22.006C42.1426 21.9144 42.4877 21.7642 42.7942 21.5582C43.0995 21.3523 43.3523 21.0846 43.5522 20.7572C43.7511 20.4298 43.8867 20.0318 43.9573 19.5624H40.5207V16.3159H40.5204Z" fill="#7445FC"/>
<path id="Vector_4" d="M55.6569 15.4401H61.6983V9.22852H65.8821V25.3251H61.6983V18.6857H55.6569V25.3251H51.472V9.22852H55.6569V15.4401Z" fill="#7445FC"/>
<path id="Vector_5" d="M75.362 12.7717V25.3251H71.1772V12.7717H67.7405V9.22852H78.7986V12.7717H75.362Z" fill="#7445FC"/>
<path id="Vector_6" d="M97.8286 12.7717V25.3251H93.6438V12.7717H90.2072V9.22852H101.265V12.7717H97.8286Z" fill="#7445FC"/>
</svg>
