<svg width="235" height="93" viewBox="0 0 235 93" fill="none" xmlns="http://www.w3.org/2000/svg">
<g clip-path="url(#clip0_6_658)">
<path d="M181.449 72.7597V38.9722H173.236V72.7597H19.4282V19.3884H25.4027V12.1682H12.1091V79.9794H181.461V72.7597H181.449Z" fill="#875EFC"/>
<path d="M173.41 30.0348H181.622V36.9153H173.41V30.0348Z" fill="#875EFC"/>
<path d="M60.9045 30.0348H69.1169V36.9153H60.9045V30.0348Z" fill="#875EFC"/>
<path d="M181.449 72.7597V38.9722H173.236V72.7597H19.4282V19.3884H25.4027V12.1682H12.1091V79.9794H181.461V72.7597H181.449Z" fill="#875EFC"/>
<path d="M29.0423 12.1687V12.1723H28.9698V60.9659H32.6871V60.9664H57.414V52.4615H38.2986V19.3889H214.648V72.7603H185.024V79.9784H221.967V12.1687H29.0423Z" fill="#875EFC"/>
<path d="M68.9019 38.9729V61.2347H60.794V38.9729H68.9019Z" fill="#875EFC"/>
<path d="M90.6158 43.779H106.706C106.706 45.4329 106.637 46.9366 106.498 48.2878C106.359 49.6389 106.085 50.8943 105.671 52.0528C105.093 53.6797 104.306 55.1196 103.314 56.3749C102.321 57.6298 101.156 58.6767 99.8189 59.5188C98.4809 60.3594 97.0121 61.0013 95.414 61.4409C93.814 61.8825 92.1312 62.104 90.3674 62.104C87.9404 62.104 85.7273 61.703 83.7282 60.9029C81.7291 60.1049 80.0114 58.9809 78.5791 57.5334C77.1448 56.0859 76.0289 54.3469 75.2289 52.321C74.4288 50.295 74.0298 48.0551 74.0298 45.5992C74.0298 43.1742 74.4212 40.9454 75.2076 38.9194C75.9939 36.8935 77.1103 35.1626 78.5578 33.7283C80.0053 32.296 81.7499 31.178 83.7895 30.378C85.8312 29.578 88.1056 29.1789 90.6158 29.1789C93.8677 29.1789 96.7226 29.8827 99.177 31.2881C101.631 32.6955 103.576 34.8736 105.01 37.8228L97.3163 41.0093C96.5994 39.2992 95.6681 38.0712 94.5232 37.3274C93.38 36.5832 92.077 36.2115 90.6158 36.2115C89.4015 36.2115 88.2988 36.4392 87.3061 36.894C86.3134 37.3487 85.4652 37.9967 84.7635 38.8373C84.0598 39.6799 83.5087 40.6919 83.1076 41.8773C82.7086 43.0626 82.5084 44.3869 82.5084 45.8486C82.5084 47.1729 82.6797 48.3988 83.025 49.5304C83.3703 50.66 83.8869 51.6395 84.5769 52.4665C85.2649 53.2934 86.1212 53.9352 87.1408 54.3905C88.1604 54.8453 89.3483 55.073 90.6995 55.073C91.4975 55.073 92.2706 54.9842 93.0144 54.8032C93.7587 54.6258 94.4274 54.3348 95.0211 53.9357C95.6128 53.5367 96.1026 53.0181 96.4899 52.3838C96.8752 51.7496 97.1378 50.9784 97.2747 50.0689H90.6163V43.779H90.6158Z" fill="#875EFC"/>
<path d="M119.942 42.0829H131.647V30.0482H139.753V61.2348H131.647V48.3712H119.942V61.2348H111.834V30.0482H119.942V42.0829Z" fill="#875EFC"/>
<path d="M158.12 36.913V61.2348H150.012V36.913H143.354V30.0482H164.778V36.913H158.12Z" fill="#875EFC"/>
<path d="M201.649 36.913V61.2348H193.541V36.913H186.882V30.0482H208.307V36.913H201.649Z" fill="#875EFC"/>
</g>
<defs>
<clipPath id="clip0_6_658">
<rect width="209.858" height="67.8112" fill="#875EFC" transform="translate(12.1091 12.1682)"/>
</clipPath>
</defs>
</svg>
